REM DIRINDEX 1\2,1\3
REM DIRNAME folder01,folder02,folder03
TITLE ""
FILE "2601-2620.mp3" MP3
  TRACK 01 AUDIO
    TITLE "0:"
    INDEX 01 00:00:00
  TRACK 02 AUDIO
    TITLE "2:cjc039_4201"
    INDEX 01 00:00:29
  TRACK 03 AUDIO
    TITLE "0:"
    INDEX 01 00:01:26
  TRACK 04 AUDIO
    TITLE "3:cjc039_4202"
    INDEX 01 00:01:73
  TRACK 05 AUDIO
    TITLE "0:"
    INDEX 01 00:04:64
  TRACK 06 AUDIO
    TITLE "2:cjc039_4203"
    INDEX 01 00:06:43
  TRACK 07 AUDIO
    TITLE "0:"
    INDEX 01 00:07:70
  TRACK 08 AUDIO
    TITLE "3:cjc039_4204"
    INDEX 01 00:08:50
  TRACK 09 AUDIO
    TITLE "0:"
    INDEX 01 00:12:40
  TRACK 10 AUDIO
    TITLE "2:cjc039_4205"
    INDEX 01 00:14:19
  TRACK 11 AUDIO
    TITLE "0:"
    INDEX 01 00:15:28
  TRACK 12 AUDIO
    TITLE "3:cjc039_4206"
    INDEX 01 00:16:10
  TRACK 13 AUDIO
    TITLE "0:"
    INDEX 01 00:20:20
  TRACK 14 AUDIO
    TITLE "2:cjc039_4207"
    INDEX 01 00:21:70
  TRACK 15 AUDIO
    TITLE "0:"
    INDEX 01 00:23:28
  TRACK 16 AUDIO
    TITLE "3:cjc039_4208"
    INDEX 01 00:24:00
  TRACK 17 AUDIO
    TITLE "0:"
    INDEX 01 00:28:29
  TRACK 18 AUDIO
    TITLE "2:cjc039_4209"
    INDEX 01 00:30:05
  TRACK 19 AUDIO
    TITLE "0:"
    INDEX 01 00:31:20
  TRACK 20 AUDIO
    TITLE "3:cjc039_4210"
    INDEX 01 00:31:69
  TRACK 21 AUDIO
    TITLE "0:"
    INDEX 01 00:35:68
  TRACK 22 AUDIO
    TITLE "2:cjc039_4211"
    INDEX 01 00:37:48
  TRACK 23 AUDIO
    TITLE "0:"
    INDEX 01 00:39:03
  TRACK 24 AUDIO
    TITLE "3:cjc039_4212"
    INDEX 01 00:39:54
  TRACK 25 AUDIO
    TITLE "0:"
    INDEX 01 00:43:64
  TRACK 26 AUDIO
    TITLE "2:cjc039_4213"
    INDEX 01 00:45:41
  TRACK 27 AUDIO
    TITLE "0:"
    INDEX 01 00:46:53
  TRACK 28 AUDIO
    TITLE "3:cjc039_4214"
    INDEX 01 00:47:32
  TRACK 29 AUDIO
    TITLE "0:"
    INDEX 01 00:51:46
  TRACK 30 AUDIO
    TITLE "2:cjc039_4215"
    INDEX 01 00:53:19
  TRACK 31 AUDIO
    TITLE "0:"
    INDEX 01 00:54:34
  TRACK 32 AUDIO
    TITLE "3:cjc039_4216"
    INDEX 01 00:55:14
  TRACK 33 AUDIO
    TITLE "0:"
    INDEX 01 00:59:34
  TRACK 34 AUDIO
    TITLE "2:cjc039_4217"
    INDEX 01 01:01:05
  TRACK 35 AUDIO
    TITLE "0:"
    INDEX 01 01:02:14
  TRACK 36 AUDIO
    TITLE "3:cjc039_4218"
    INDEX 01 01:02:69
  TRACK 37 AUDIO
    TITLE "0:"
    INDEX 01 01:07:08
  TRACK 38 AUDIO
    TITLE "2:cjc039_4219"
    INDEX 01 01:08:58
  TRACK 39 AUDIO
    TITLE "0:"
    INDEX 01 01:10:31
  TRACK 40 AUDIO
    TITLE "3:cjc039_4220"
    INDEX 01 01:11:11
  TRACK 41 AUDIO
    TITLE "0:"
    INDEX 01 01:15:50
  TRACK 42 AUDIO
    TITLE "2:cjc039_4221"
    INDEX 01 01:17:26
  TRACK 43 AUDIO
    TITLE "0:"
    INDEX 01 01:18:29
  TRACK 44 AUDIO
    TITLE "3:cjc039_4222"
    INDEX 01 01:19:07
  TRACK 45 AUDIO
    TITLE "0:"
    INDEX 01 01:23:15
  TRACK 46 AUDIO
    TITLE "2:cjc039_4223"
    INDEX 01 01:24:69
  TRACK 47 AUDIO
    TITLE "0:"
    INDEX 01 01:26:07
  TRACK 48 AUDIO
    TITLE "3:cjc039_4224"
    INDEX 01 01:26:62
  TRACK 49 AUDIO
    TITLE "0:"
    INDEX 01 01:30:71
  TRACK 50 AUDIO
    TITLE "2:cjc039_4225"
    INDEX 01 01:32:47
  TRACK 51 AUDIO
    TITLE "0:"
    INDEX 01 01:33:58
  TRACK 52 AUDIO
    TITLE "3:cjc039_4226"
    INDEX 01 01:34:32
  TRACK 53 AUDIO
    TITLE "0:"
    INDEX 01 01:37:64
  TRACK 54 AUDIO
    TITLE "2:cjc039_4227"
    INDEX 01 01:39:37
  TRACK 55 AUDIO
    TITLE "0:"
    INDEX 01 01:40:58
  TRACK 56 AUDIO
    TITLE "3:cjc039_4228"
    INDEX 01 01:41:36
  TRACK 57 AUDIO
    TITLE "0:"
    INDEX 01 01:45:71
  TRACK 58 AUDIO
    TITLE "2:cjc039_4229"
    INDEX 01 01:47:44
  TRACK 59 AUDIO
    TITLE "0:"
    INDEX 01 01:48:52
  TRACK 60 AUDIO
    TITLE "3:cjc039_4230"
    INDEX 01 01:49:37
  TRACK 61 AUDIO
    TITLE "0:"
    INDEX 01 01:52:53
  TRACK 62 AUDIO
    TITLE "2:cjc039_4231"
    INDEX 01 01:54:27
  TRACK 63 AUDIO
    TITLE "0:"
    INDEX 01 01:55:71
  TRACK 64 AUDIO
    TITLE "3:cjc039_4232"
    INDEX 01 01:56:47
  TRACK 65 AUDIO
    TITLE "0:"
    INDEX 01 02:00:10
  TRACK 66 AUDIO
    TITLE "2:cjc039_4233"
    INDEX 01 02:01:60
  TRACK 67 AUDIO
    TITLE "0:"
    INDEX 01 02:02:58
  TRACK 68 AUDIO
    TITLE "3:cjc039_4234"
    INDEX 01 02:03:38
  TRACK 69 AUDIO
    TITLE "0:"
    INDEX 01 02:06:59
  TRACK 70 AUDIO
    TITLE "2:cjc039_4235"
    INDEX 01 02:08:41
  TRACK 71 AUDIO
    TITLE "0:"
    INDEX 01 02:09:58
  TRACK 72 AUDIO
    TITLE "3:cjc039_4236"
    INDEX 01 02:10:38
  TRACK 73 AUDIO
    TITLE "0:"
    INDEX 01 02:14:30
  TRACK 74 AUDIO
    TITLE "2:cjc039_4237"
    INDEX 01 02:16:05
  TRACK 75 AUDIO
    TITLE "0:"
    INDEX 01 02:17:14
  TRACK 76 AUDIO
    TITLE "3:cjc039_4238"
    INDEX 01 02:17:69
  TRACK 77 AUDIO
    TITLE "0:"
    INDEX 01 02:21:10
  TRACK 78 AUDIO
    TITLE "2:cjc039_4239"
    INDEX 01 02:22:66
  TRACK 79 AUDIO
    TITLE "0:"
    INDEX 01 02:24:38
  TRACK 80 AUDIO
    TITLE "3:cjc039_4240"
    INDEX 01 02:25:14
  TRACK 81 AUDIO
    TITLE "0:"
    INDEX 01 02:30:30
